PathFileType	4	(X/Y/Z)	path1_16_0-584.trc
DataRate	CameraRate	NumFrames	NumMarkers	Units	OrigDataRate	OrigDataStartFrame	OrigNumFrames
30	30	6	22	m	30	73	584
Frame#	Time	Hip			RHip			RKnee			RAnkle			RBigToe			RSmallToe			RHeel			LHip			LKnee			LAnkle			LBigToe			LSmallToe			LHeel			Neck			Head			Nose			RShoulder			RElbow			RWrist			LShoulder			LElbow			LWrist		
		X1	Y1	Z1	X2	Y2	Z2	X3	Y3	Z3	X4	Y4	Z4	X5	Y5	Z5	X6	Y6	Z6	X7	Y7	Z7	X8	Y8	Z8	X9	Y9	Z9	X10	Y10	Z10	X11	Y11	Z11	X12	Y12	Z12	X13	Y13	Z13	X14	Y14	Z14	X15	Y15	Z15	X16	Y16	Z16	X17	Y17	Z17	X18	Y18	Z18	X19	Y19	Z19	X20	Y20	Z20	X21	Y21	Z21	X22	Y22	Z22
74	2.466666666666667	2.517568190029211	0.8374868631964985	0.5883895364562749	2.523657349774753	0.7992246594750508	0.510650585050819	2.5010115017111008	0.4663087323550735	0.5107067739746098	2.568569840106736	0.09616727834848776	0.5575622562712803	2.365892902921808	0.018012519010733488	0.5285674208901114	2.4017493589245285	0.021208772176916767	0.4677278153604	2.613484333641621	0.033804202929039205	0.5562205338800066	2.509071164488487	0.7992351889339164	0.6701590461571221	2.5151925032093496	0.4386378633491449	0.652390032187081	2.5357965601568964	0.11446351856041329	0.6617879803041123	2.3744001866301483	0.02383698515817937	0.6788786618497493	2.400504926392033	0.03275814039085733	0.7297750466812468	2.5756362418166647	0.04354311386873304	0.6571017414414944	2.483904522750255	1.4741733640298615	0.5989922312055254	2.458213014814044	1.7193317769292118	0.5537974548279251	2.3535810819947542	1.6104295596439533	0.5766505452504952	2.5376604714470408	1.3684327583214984	0.4303649527565566	2.5531297303022917	1.0735597403765258	0.41668818343168534	2.500265740886975	0.8487443990360447	0.381353232650018	2.4772878871687953	1.350291485256881	0.7701495002930057	2.514883274409798	1.073027579576272	0.7987781830703347	2.5006809970862105	0.8384987199436575	0.8096678610382722
75	2.5	2.5170092477852113	0.8375442709468234	0.5881618303705307	2.523705891457453	0.7992813492072376	0.5106499542550743	2.5008043312804	0.466211255652813	0.5110017872370866	2.568734637159911	0.09656832502297463	0.5574041405463757	2.3654436785927153	0.018448806615486143	0.5281815166660434	2.4020127747649007	0.02153200191595426	0.4677296227671344	2.6142209202515145	0.033727658723639135	0.5568741408184587	2.508502729582868	0.7997948807936627	0.6706330711112733	2.5148251180238645	0.4389656700454612	0.6528812985714647	2.5366352754655352	0.1136293214469951	0.6616821578409646	2.373579823291335	0.02426303641423304	0.6783865166469122	2.3996089328902617	0.033462837143265194	0.729505109691864	2.5762975524579232	0.04363378825903523	0.6570310438022215	2.484394362775721	1.473871697941105	0.5990852400526484	2.458504280278186	1.7195447787988063	0.5538563172956338	2.353861355359331	1.6102915844933303	0.5763743579088039	2.5379482957550743	1.368284301203234	0.42994191533958703	2.553088052268072	1.0731912818662703	0.41652191925543114	2.5003307567721587	0.8479712306267244	0.3813827006948856	2.4773299342985435	1.3503765457136578	0.7701836174523383	2.514785488833792	1.0730957993104755	0.7984275672067003	2.500529981526709	0.8383510893964483	0.8095390096096693
76	2.533333333333333	2.51644651520392	0.8376476067494286	0.5879868239755319	2.523715515107414	0.7995859833159469	0.5106767161482538	2.5008468790531118	0.4659306494118871	0.5117124869588874	2.5691129363386733	0.09686191157044877	0.5575913984594201	2.3654745025500725	0.019445792463645098	0.5284415886139877	2.4024914757244757	0.021831722175321477	0.46788550593240047	2.614904149386261	0.033542616647577114	0.5575055519949857	2.5080351143539295	0.8006367167079139	0.6710916866936777	2.5147182928709753	0.4395466530382219	0.653274128025318	2.5385573563905197	0.11189523219451263	0.6612638838594028	2.373262476339434	0.024252151876221022	0.677847523333452	2.3997521447525707	0.03356541121751065	0.7294633897995818	2.5778821269052314	0.04340664573190973	0.6568760065134102	2.484937674192401	1.4734696170827541	0.5995137169365866	2.458640666787975	1.7197566937829627	0.5534190026807829	2.354102715885981	1.6100108874347596	0.5758544839392538	2.538177818099179	1.3682283870960374	0.4295503574707965	2.5530530667367435	1.0728305118371146	0.41643710829339237	2.5004215190133516	0.8472291995454043	0.3814887725510126	2.4778214822206976	1.350459260919341	0.7702085867395374	2.5146198009862624	1.0732085581793305	0.7982311554349257	2.50047406733151	0.8382490363597173	0.8094441271705566
77	2.566666666666667	2.5159399289934226	0.8377841392137362	0.5879025917234477	2.5235730451795826	0.8000184364983505	0.5107041028270315	2.501294955464271	0.4654086160640962	0.5129944379872331	2.569591656702169	0.09696649511621253	0.5580103849978437	2.3659715488260944	0.020895919622171244	0.5292958806014119	2.4031373182242715	0.022118189861040864	0.46816977631655626	2.615362457145168	0.033356459810808994	0.5579556332068483	2.507750382940396	0.8015458590442912	0.6715223749863963	2.5149609305525154	0.44030487829483356	0.6535239537613325	2.5415340656778818	0.10924465134122338	0.660515343801117	2.3736656770271765	0.02373465535242063	0.6773640090604462	2.4007787347472993	0.033049836658563925	0.7295683268918634	2.580310863591623	0.0428420313615795	0.6567140090628752	2.485452556631479	1.4730845173510716	0.6001500491270656	2.458657728787492	1.719966934408778	0.552539775741807	2.354279955351822	1.6097011808527582	0.5752265640839953	2.5383058169049786	1.368242213678082	0.42924158605732027	2.553028806475637	1.0724550132983601	0.4164125255100405	2.5004914869796826	0.846571741752537	0.38169075386778967	2.478663993234679	1.3505180014820921	0.7702574065708793	2.514424507789223	1.0732862645321348	0.7981925339330713	2.5004960651813954	0.8381112833821295	0.8093897375794754
78	2.6	2.515517504445803	0.8379294391966045	0.5879263507598479	2.5232331933282515	0.8004040501152978	0.5106773592545347	2.502316383292038	0.4645693552592966	0.5149573174950934	2.569991003403624	0.09690779906419392	0.5584614301743777	2.366731226726885	0.022539269619382664	0.5304319559975536	2.4038605539549223	0.022395949191795952	0.46850480782327164	2.6159309738960674	0.033010543512901114	0.5586279350842462	2.5076468708015858	0.8022434435293071	0.6718671812543	2.5154747522226377	0.44106620626594994	0.6536172298903098	2.5449858583846594	0.10617049976988076	0.659563856915035	2.374734875057183	0.02285125443951156	0.6770064263917388	2.402485046287043	0.03192877756002347	0.7297472666859364	2.5830742523714765	0.04209767291026211	0.6566326902887567	2.4858715962238804	1.4728344915722502	0.6008151720744989	2.458675639976486	1.7201011291397221	0.5514637957894011	2.3543818679775352	1.6094809091583375	0.5746847335116908	2.538346004485049	1.3682728759955862	0.4290355016611356	2.5530070561221176	1.072083258095406	0.4163997554190428	2.500498830034167	0.8460539800738135	0.38195695633261045	2.4796239724497435	1.3505489669512163	0.7703312251963025	2.5141961254309364	1.0732886756259457	0.7982749958086783	2.500559095554552	0.8379467929574413	0.8093711140795117
79	2.6333333333333333	2.5151794026468104	0.8380694359886307	0.5880559650139237	2.5227631480806143	0.8006281491231816	0.5105955011214596	2.5038694546383256	0.46343219865027235	0.5174739916689284	2.5701846899813763	0.09677422267460263	0.5587609321712149	2.3675155650354447	0.02409804945772116	0.5315114802128439	2.4045532380332304	0.02266760949829853	0.46882466935873635	2.616943083256616	0.03234464360028659	0.5599121013370224	2.5076419787621256	0.8025710178022576	0.6720707871910004	2.5160962726035163	0.44164244589114615	0.6535687132267473	2.54818509512367	0.1033094278978543	0.6585805396551472	2.3761678557889847	0.021922024576521724	0.6768150382561892	2.4047305855305923	0.030247517774828772	0.7299431906128101	2.5855548353579905	0.0413883027416741	0.6566769420687691	2.486180967825614	1.4727902411737088	0.6013783232354785	2.458792619304165	1.7200952262314668	0.5505112976427965	2.354424558718753	1.609421837819874	0.57434827614014	2.538347132101314	1.3682920737516984	0.4289293717984577	2.552993721004243	1.071774748679027	0.41638182090997206	2.5004129418047962	0.8457318022926936	0.3822341936889899	2.4804458061683157	1.3505603211825572	0.7703772766183339	2.513913057367295	1.073231345230409	0.798420450471872	2.5006053147115495	0.8378473813675995	0.8093712491489974
